# xmcd
#
# Track frame offsets:
# 150
# 22001
# 48308
# 74275
# 95922
# 117059
# 138502
# 159367
# 192137
#
# Disc length: 2933 seconds
#
# Revision: 0
# Processed by: cddbd v1.5.2PL0 Copyright (c) Steve Scherf et al.
# Submitted via: Audion 3.0.2 (http://www.panic.com/audion/)
#
DISCID=780b7309
DTITLE=Bob James - Grand Piano Canyon
DYEAR=1900
DGENRE=
TTITLE0=Bare Bones
TTITLE1=Restoration
TTITLE2=Wings For Sarah
TTITLE3=Svengali
TTITLE4=Worlds Apart
TTITLE5=Stop That!
TTITLE6=Xraxse
TTITLE7=Just Listen
TTITLE8=Far From Turtle
EXTD=
EXTT0=
EXTT1=
EXTT2=
EXTT3=
EXTT4=
EXTT5=
EXTT6=
EXTT7=
EXTT8=
PLAYORDER=
